<svg xmlns="http://www.w3.org/2000/svg" width="40" height="43" viewBox="0 0 40 43">
  <metadata><?xpacket begin="﻿" id="W5M0MpCehiHzreSzNTczkc9d"?>
<x:xmpmeta xmlns:x="adobe:ns:meta/" x:xmptk="Adobe XMP Core 5.6-c138 79.159824, 2016/09/14-01:09:01        ">
   <rdf:RDF xmlns:rdf="http://www.w3.org/1999/02/22-rdf-syntax-ns#">
      <rdf:Description rdf:about=""/>
   </rdf:RDF>
</x:xmpmeta>
                                                                                                    
                                                                                                    
                                                                                                    
                                                                                                    
                                                                                                    
                                                                                                    
                                                                                                    
                                                                                                    
                                                                                                    
                                                                                                    
                                                                                                    
                                                                                                    
                                                                                                    
                                                                                                    
                                                                                                    
                                                                                                    
                                                                                                    
                                                                                                    
                                                                                                    
                                                                                                    
                           
<?xpacket end="w"?></metadata>
<defs>
    <style>
      .cls-1 {
        fill: #424242;
        fill-rule: evenodd;
      }
    </style>
  </defs>
  <path id="book01" class="cls-1" d="M286.388,60.037a3.506,3.506,0,0,0,3.521-3.492V44.571a3.521,3.521,0,0,0-7.042,0V56.546A3.506,3.506,0,0,0,286.388,60.037ZM263.826,28.979h32.16v-2h-32.16c-4.025,0-7.828,0-7.828,5.087a3.527,3.527,0,0,0,.046.463H256v27.8a9.41,9.41,0,0,0,8.6,9.624h31.387V34.343h-32.2c-1,.035-4.132-0.108-5.33-1.25a1.336,1.336,0,0,1-.447-1.023C258.01,29.413,258.826,28.979,263.826,28.979Zm-0.41,7.366c0.2,0,.347,0,0.41-0.007h30.148V67.959H264.6a7.463,7.463,0,0,1-6.589-7.628V35.2A12.161,12.161,0,0,0,263.416,36.345Z" transform="translate(-256 -26.969)"/>
</svg>
