<svg xmlns="http://www.w3.org/2000/svg" width="40" height="43" viewBox="0 0 40 43">
  <metadata><?xpacket begin="﻿" id="W5M0MpCehiHzreSzNTczkc9d"?>
<x:xmpmeta xmlns:x="adobe:ns:meta/" x:xmptk="Adobe XMP Core 5.6-c138 79.159824, 2016/09/14-01:09:01        ">
   <rdf:RDF xmlns:rdf="http://www.w3.org/1999/02/22-rdf-syntax-ns#">
      <rdf:Description rdf:about=""/>
   </rdf:RDF>
</x:xmpmeta>
                                                                                                    
                                                                                                    
                                                                                                    
                                                                                                    
                                                                                                    
                                                                                                    
                                                                                                    
                                                                                                    
                                                                                                    
                                                                                                    
                                                                                                    
                                                                                                    
                                                                                                    
                                                                                                    
                                                                                                    
                                                                                                    
                                                                                                    
                                                                                                    
                                                                                                    
                                                                                                    
                           
<?xpacket end="w"?></metadata>
<defs>
    <style>
      .cls-1 {
        fill: #424242;
        fill-rule: evenodd;
      }
    </style>
  </defs>
  <path id="eye01" class="cls-1" d="M480.747,27h-9.494A15.3,15.3,0,0,0,456,42.31V54.69A15.3,15.3,0,0,0,471.253,70h9.494A15.3,15.3,0,0,0,496,54.69V42.31A15.3,15.3,0,0,0,480.747,27Zm13.225,27.69a13.258,13.258,0,0,1-13.225,13.262h-9.494A13.258,13.258,0,0,1,458.028,54.69V42.31a13.258,13.258,0,0,1,13.225-13.262h9.494A13.258,13.258,0,0,1,493.972,42.31V54.69Zm-8.441-9.6a3.564,3.564,0,1,1-2.447-3.322,9.567,9.567,0,1,0,2.419,3.039C485.511,44.905,485.531,45,485.531,45.094Z" transform="translate(-456 -27)"/>
</svg>
