<svg xmlns="http://www.w3.org/2000/svg" width="40" height="43" viewBox="0 0 40 43">
  <metadata><?xpacket begin="﻿" id="W5M0MpCehiHzreSzNTczkc9d"?>
<x:xmpmeta xmlns:x="adobe:ns:meta/" x:xmptk="Adobe XMP Core 5.6-c138 79.159824, 2016/09/14-01:09:01        ">
   <rdf:RDF xmlns:rdf="http://www.w3.org/1999/02/22-rdf-syntax-ns#">
      <rdf:Description rdf:about=""/>
   </rdf:RDF>
</x:xmpmeta>
                                                                                                    
                                                                                                    
                                                                                                    
                                                                                                    
                                                                                                    
                                                                                                    
                                                                                                    
                                                                                                    
                                                                                                    
                                                                                                    
                                                                                                    
                                                                                                    
                                                                                                    
                                                                                                    
                                                                                                    
                                                                                                    
                                                                                                    
                                                                                                    
                                                                                                    
                                                                                                    
                           
<?xpacket end="w"?></metadata>
<defs>
    <style>
      .cls-1 {
        fill: #424242;
        fill-rule: evenodd;
      }
    </style>
  </defs>
  <path id="Home01" class="cls-1" d="M92.835,70.031H88.7a0.956,0.956,0,0,1,0-1.911h4.131c1.542,0,2.26-2.26,2.26-3.786V48.69c0-3.731-.263-5.2-3.393-8.342-0.628-.629-2.374-2.071-4.221-3.6-2.206-1.823-4.706-3.888-6.311-5.389-3.872-3.621-5.994-2.85-8.77-.027-0.361.33-8,7.306-10.175,9.08-3.32,2.707-3.32,4.562-3.32,7.635V64.334c0,3.328,1.086,3.786,2.26,3.786h4.591a0.956,0.956,0,0,1,0,1.911H61.165c-2.763,0-4.165-1.917-4.165-5.7V48.05c0-3.619.194-6,4.023-9.119,2.133-1.74,9.979-8.9,10.058-8.975,2.813-2.861,6.169-4.87,11.388.008,1.563,1.461,4.038,3.506,6.223,5.311C90.658,36.9,92.356,38.3,93.049,39,96.643,42.6,97,44.619,97,48.69V64.334C97,67.1,95.541,70.031,92.835,70.031ZM77,53.019a7,7,0,0,1,7,7.005V70.031H70V60.024A7,7,0,0,1,77,53.019Z" transform="translate(-57 -27.031)"/>
</svg>
