<svg xmlns="http://www.w3.org/2000/svg" width="40" height="43" viewBox="0 0 40 43">
  <metadata><?xpacket begin="﻿" id="W5M0MpCehiHzreSzNTczkc9d"?>
<x:xmpmeta xmlns:x="adobe:ns:meta/" x:xmptk="Adobe XMP Core 5.6-c138 79.159824, 2016/09/14-01:09:01        ">
   <rdf:RDF xmlns:rdf="http://www.w3.org/1999/02/22-rdf-syntax-ns#">
      <rdf:Description rdf:about=""/>
   </rdf:RDF>
</x:xmpmeta>
                                                                                                    
                                                                                                    
                                                                                                    
                                                                                                    
                                                                                                    
                                                                                                    
                                                                                                    
                                                                                                    
                                                                                                    
                                                                                                    
                                                                                                    
                                                                                                    
                                                                                                    
                                                                                                    
                                                                                                    
                                                                                                    
                                                                                                    
                                                                                                    
                                                                                                    
                                                                                                    
                           
<?xpacket end="w"?></metadata>
<defs>
    <style>
      .cls-1 {
        fill: #424242;
        fill-rule: evenodd;
      }
    </style>
  </defs>
  <path id="me01" class="cls-1" d="M686.523,32H667.477A10.506,10.506,0,0,0,657,42.512V64.487A10.506,10.506,0,0,0,667.477,75h19.046A10.506,10.506,0,0,0,697,64.487V42.512A10.506,10.506,0,0,0,686.523,32ZM695.1,64.487a8.6,8.6,0,0,1-8.573,8.6H667.477a8.6,8.6,0,0,1-8.573-8.6V42.512a8.6,8.6,0,0,1,8.573-8.6h19.046a8.6,8.6,0,0,1,8.573,8.6V64.487ZM677,53.125a5,5,0,1,0-5-5A5,5,0,0,0,677,53.125Zm0.429,2h-0.858c-4.733,0-8.571,4.478-8.571,10h18C686,59.6,682.162,55.124,677.429,55.124Z" transform="translate(-657 -32)"/>
</svg>
